<?xml version="1.0" encoding="UTF-8"?>
<svg xmlns="http://www.w3.org/2000/svg" xmlns:xlink="http://www.w3.org/1999/xlink" version="1.1" viewBox="0 0 515.9 728.5">
  <!-- Generator: Adobe Illustrator 29.3.1, SVG Export Plug-In . SVG Version: 2.1.0 Build 151)  -->
  <defs>
    <style>
      .st0, .st1, .st2, .st3 {
        fill: none;
      }

      .st4 {
        fill: #d26363;
      }

      .st5 {
        fill: #c2e5ea;
      }

      .st1 {
        opacity: 1;
      }

      .st1, .st6, .st2 {
        stroke-width: 2.8px;
      }

      .st1, .st6, .st2, .st3 {
        stroke: #fff;
      }

      .st1, .st6, .st2, .st3, .st7, .st8 {
        stroke-miterlimit: 10;
      }

      .st6, .st9, .st10 {
        fill: #fff;
      }

      .st11 {
        fill: #208c9d;
        font-size: 36px;
      }

      .st11, .st12, .st8 {
        font-family: Kaiso-Next-B-83pv-RKSJ-H, Kaiso;
      }

      .st13 {
        fill: #dac154;
        font-size: 16px;
      }

      .st13, .st10 {
        font-family: KFhimaji-83pv-RKSJ-H, KFhimaji;
      }

      .st14 {
        letter-spacing: .2em;
      }

      .st15 {
        letter-spacing: .2em;
      }

      .st16 {
        clip-path: url(#clippath-1);
      }

      .st17 {
        clip-path: url(#clippath-2);
      }

      .st18 {
        fill: #93d0c6;
        opacity: .7;
      }

      .st10 {
        font-size: 48px;
        glyph-orientation-vertical: 0deg;
        text-orientation: upright;
        writing-mode: tb;
      }

      .st19 {
        fill: #68c7ea;
        font-family: TrebuchetMS-Bold, 'Trebuchet MS';
        font-size: 25px;
        font-weight: 700;
      }

      .st12 {
        fill: #3b3b52;
        font-size: 14px;
      }

      .st3 {
        stroke-width: 1.4px;
      }

      .st20 {
        letter-spacing: 0em;
      }

      .st21 {
        opacity: .4;
      }

      .st7 {
        fill: #94c1c8;
      }

      .st7, .st8 {
        stroke: #231815;
      }

      .st22 {
        letter-spacing: -.5em;
      }

      .st23 {
        fill: #efd7bb;
      }

      .st24 {
        fill: #f4c4c4;
      }

      .st25 {
        clip-path: url(#clippath);
      }

      .st8 {
        fill: #47459a;
        font-size: 18px;
        stroke-width: .5px;
      }
    </style>
    <clipPath id="clippath">
      <rect class="st0" x="21.1" y="30.2" width="471.9" height="698.2"/>
    </clipPath>
    <clipPath id="clippath-1">
      <path class="st0" d="M501.6,211.7c-47.1,119-96.6,148.7-226.3,161.8C128.7,388.2-7.6,336.3,15.1,210.4,33.9,106.7,123.5,35.6,265.7,20.9c159.9-16.5,281.2,76.4,235.9,190.8Z"/>
    </clipPath>
    <clipPath id="clippath-2">
      <path class="st0" d="M476.5,425c-58.7-15.7-234.9,18.9-342.9,17.8-62.9-.6-95.9-8.7-112.5-15.3v285.8h471.9v-283.1c-5.1-1.9-10.6-3.6-16.6-5.2Z"/>
    </clipPath>
  </defs>
  <g id="_レイヤー_2" data-name="レイヤー_2">
    <rect class="st7" width="515.9" height="728.5"/>
  </g>
  <g id="_レイヤー_4" data-name="レイヤー_4">
    <rect class="st23" x="1.2" y="397.3" width="514.7" height="331.2"/>
  </g>
  <g id="_レイヤー_5" data-name="レイヤー_5">
    <g class="st25">
      <g class="st16">
        <image width="3508" height="2480" transform="translate(-.9 15.1) scale(.1)" xlink:href="../img/illrep/露营_备份.jpg"/>
      </g>
    </g>
  </g>
  <g id="_图层_7" data-name="图层_7">
    <text class="st10" transform="translate(53.6 36.3)"><tspan x="0" y="0">絵画展覧会</tspan></text>
  </g>
  <g id="_图层_8" data-name="图层_8">
    <circle class="st3" cx="88.9" cy="279.9" r="10.7"/>
    <circle class="st6" cx="102.4" cy="264.4" r="3.1"/>
    <ellipse class="st1" cx="85.7" cy="248.7" rx="1.2" ry="1"/>
    <circle class="st2" cx="63.4" cy="312.1" r="14.9"/>
    <circle class="st6" cx="68.6" cy="286.9" r="2.4"/>
    <circle class="st6" cx="100.2" cy="307" r="7.3"/>
    <rect class="st6" x="14.7" y="382.1" width="486.4" height="1.4"/>
    <rect class="st6" x="14.7" y="13.4" width="486.4" height="1.4"/>
    <rect class="st6" x="7.7" y="21.8" width=".4" height="351.6"/>
    <rect class="st6" x="506.9" y="19.9" width=".4" height="351.6"/>
  </g>
  <g id="_レイヤー_6" data-name="レイヤー_6">
    <path class="st9" d="M476.5,425c-58.7-15.7-234.9,18.9-342.9,17.8-62.9-.6-95.9-8.7-112.5-15.3v285.8h471.9v-283.1c-5.1-1.9-10.6-3.6-16.6-5.2Z"/>
    <g class="st21">
      <g class="st17">
        <rect class="st24" x="-12.4" y="467.6" width="247.4" height="16.9" rx="8.4" ry="8.4" transform="translate(-238.7 134.8) rotate(-32.6)"/>
        <rect class="st24" x="285.2" y="484" width="247.4" height="16.9" rx="8.4" ry="8.4" transform="translate(-200.8 297.6) rotate(-32.6)"/>
        <rect class="st24" x="-8.1" y="620.4" width="247.4" height="16.9" rx="8.4" ry="8.4" transform="translate(-320.4 161.1) rotate(-32.6)"/>
        <rect class="st5" x="148.9" y="448" width="247.4" height="16.9" rx="8.4" ry="8.4" transform="translate(-202.9 218.6) rotate(-32.6)"/>
        <rect class="st5" x="174.2" y="644.1" width="247.4" height="16.9" rx="8.4" ry="8.4" transform="translate(-304.5 263) rotate(-32.6)"/>
        <rect class="st24" x="334.2" y="650.2" width="247.4" height="16.9" rx="8.4" ry="8.4" transform="translate(-282.6 350.2) rotate(-32.6)"/>
      </g>
    </g>
  </g>
  <g id="_レイヤー_11" data-name="レイヤー_11">
    <rect class="st18" x="21.1" y="600.7" width="471.9" height="115.1"/>
  </g>
  <g id="_レイヤー_10" data-name="レイヤー_10">
    <path class="st4" d="M490.9,626.8l-1.3-12.2-6.6,3.3-.6-5.9,2.6-5.7-3.5-3.1-8.9.9,3.5,6.6-13.7,1.4,1.5-7.2-12.4,1.3,2.4,6.7-12.8,1.3,1.2-7.1-13.3,1.4,3.1,6.7-12.4,1.3.9-7.1-13.1,1.4,2.6,6.7-12.8,1.3.9-7.1-12.1,1.3,2.2,6.8-7.8.8-3.2-2.6-2.5,3.2.7,7.1,1.7,2.2,4.5-2.9,1,9.3-6.3-1,1.4,13,5.9-3.3,1.1,10.2-6.4-1.7,1.4,13.3,6.1-3.7,1.2,11.6-6.6-1.2,1.3,12.1,6.7-2.9,1,10-7-.2,1.2,11.4,7.2-2.5.6,5.7-3.3,3.3,3.9,2.8,9.5-1-3.2-5.1,10.9-1.1-1.3,5.6,14.3-1.5-3.4-5.3,12.6-1.3-2,5.9,14.5-1.5-3.2-5.3,10.9-1.1v5.7c-.1,0,14.6-1.5,14.6-1.5l-2.9-5.1,11-.9-.4,5.2,12.1-1.3-3.3-5.1,8-.6,4.4,3.1,3.5-3.7-.8-7.6-6.6,3.1-1.2-11.7,7.1,1.9-1.3-12.4-6.6,3.1-1.2-11.4,7,.7-1.2-11.4-6.6,2.9-1.1-10.9,7,.7-1.2-11.2-6.7,2.4-1.1-10.5,7,1ZM462.1,663.6c1,14.2-9.2,26.8-23.1,28.5-14,1.6-26.7-8.2-29-22.3-5.3-1.3-9.9-5.4-11.9-11.3-3.1-9.2,1.5-19.3,10.1-22.5,6.4-2.4,13.2-.4,17.6,4.6,2.2-.9,4.6-1.6,7.1-1.9,3-.4,6-.2,8.8.5,1.8-4,5.1-7.2,9.3-8.8,8.6-3.2,18.1,1.6,21.1,10.8,3,9.2-1.4,19.2-10,22.5Z"/>
  </g>
  <g id="_レイヤー_9" data-name="レイヤー_9">
    <text/>
    <text class="st12"><tspan x="37" y="623.1">京都精華大学サテライトスペー</tspan><tspan class="st14" x="233" y="623.1">ス</tspan><tspan x="250.5" y="623.1">Demachi</tspan><tspan x="37" y="639.1" xml:space="preserve">〒606-8588　   京都市左京区田中上柳</tspan><tspan class="st14" x="283.9" y="639.1">町</tspan><tspan x="301.4" y="639.1">25-3 </tspan><tspan x="37" y="655.1">京阪出町柳ビ</tspan><tspan class="st14" x="121" y="655.1">ル2</tspan><tspan x="149.2" y="655.1">階　</tspan><tspan x="30" y="671.1">（叡山電車出町柳駅西側</tspan><tspan class="st22" x="184" y="671.1">）</tspan><tspan x="30" y="687.1">【最寄り駅】叡山電車出町柳駅西側　徒歩すぐ</tspan><tspan x="37" y="703.1">https://gallery.kyoto-seika.ac.jp/</tspan></text>
    <text class="st19" transform="translate(211.5 491)"><tspan x="0" y="0">AKINA</tspan></text>
    <text class="st11" transform="translate(33.1 481.1)"><tspan x="0" y="0">絵画展覧会</tspan></text>
    <text class="st8" transform="translate(40.8 528)"><tspan x="0" y="0">202</tspan><tspan class="st14" x="28" y="0">1年7月</tspan><tspan x="97.3" y="0">2</tspan><tspan class="st14" x="106.6" y="0">0</tspan><tspan x="120.5" y="0">日（火）</tspan><tspan class="st15" x="192.5" y="0">～</tspan><tspan class="st20" x="215" y="0">2</tspan><tspan class="st14" x="224.3" y="0">5</tspan><tspan x="238.1" y="0">日（日）11</tspan><tspan x="322.3" y="-1">:</tspan><tspan x="326.5" y="0">00-18</tspan><tspan x="368.1" y="-1">:</tspan><tspan x="372.3" y="0">00</tspan><tspan x="0" y="28.5">2021/7/24</tspan><tspan class="st14" x="78" y="28.5">(土</tspan><tspan x="110.3" y="28.5">)　　　　　　　　　　18:00-20:00</tspan></text>
    <text class="st13" transform="translate(397.2 639.1) rotate(-19.4)"><tspan x="0" y="0">入</tspan><tspan class="st14" x="16" y="0">場</tspan><tspan x="36" y="0">Free</tspan></text>
    <text/>
    <text/>
    <text/>
    <text/>
  </g>
</svg>